<svg height="512" viewBox="0 0 60 50" width="512" xmlns="http://www.w3.org/2000/svg"><g id="Page-1" fill="none" fill-rule="evenodd"><g id="042---Match-Expiry-" fill-rule="nonzero"><path id="Shape" d="m59.02 15.73c-.0170331 2.8683643-.7126567 5.6919791-2.03 8.24l-22.78 23.14c-.95.79-1.93 1.6-2.93 2.43-.7442706.6101372-1.8157294.6101372-2.56 0-3.1-2.58-6-4.97-8.68-7.23-11.77-9.95-19.06-17.31-19.06-26.58 0-8.53 5.92-15.73 14.51-15.73 5.7538548.0514765 11.1404346 2.83571829 14.51 7.5 3.3695654-4.66428171 8.7561452-7.4485235 14.51-7.5 1.3953535-.00351146 2.7836053.19866113 4.12.6 6.31 1.88 10.39 8.05 10.39 15.13z" fill="#ff5364"/><path id="Shape" d="m59.02 15.73c-.0170331 2.8683643-.7126567 5.6919791-2.03 8.24l-22.78 23.14c-.95.79-1.93 1.6-2.93 2.43-.7442706.6101372-1.8157294.6101372-2.56 0-3.1-2.58-6-4.97-8.68-7.23 27.04-12.86 29.16-32.78 28.59-41.71 6.31 1.88 10.39 8.05 10.39 15.13z" fill="#df4d60"/><path id="Shape" d="m13.729 5.16c-.5135937-.0025402-.9417546-.39373436-.9905338-.90501268s.2976859-.97637672.8015338-1.07598732c.6427869-.12184048 1.2957735-.1817813 1.95-.179.5522847 0 1 .44771525 1 1s-.4477153 1-1 1c-.5266509-.00253001-1.0523496.04501725-1.57.142-.0629737.01188897-.1269139.01791475-.191.018z" fill="#fb7b76"/><path id="Shape" d="m4.98 16.73c-.55228475 0-1-.4477153-1-1-.12083969-4.2055002 1.8099589-8.20732919 5.177-10.73.45254476-.29471317 1.0573308-.17687102 1.3661212.2661878s.2100139 1.05124969-.2231212 1.3738122c-2.82977839 2.14943084-4.44042211 5.5384937-4.32 9.09 0 .2652165-.10535684.5195704-.29289322.7071068s-.44189029.2928932-.70710678.2928932z" fill="#fb7b76"/><path id="Rectangle-path" d="m40 11h4v4.12h-4z" fill="#95a5a5"/><rect id="Rectangle-path" fill="#bdc3c7" height="4" rx="2" width="12" x="36" y="7"/><path id="Shape" d="m31.991 19.26c-.348712.0001546-.6723211-.1813545-.854-.479l-1.991-3.26c-.2877404-.4716512-.1386512-1.0872596.333-1.375s1.0872596-.1386512 1.375.333l1.99 3.259c.1382796.2264688.1808811.498611.1184243.7565035-.0624569.2578924-.2248508.4803884-.4514243.6184965-.156262.0964685-.3363595.1473807-.52.147z" fill="#95a5a5"/><path id="Shape" d="m52.009 19.26c-.1836405.0003807-.363738-.0505315-.52-.147-.2265735-.1381081-.3889674-.3606041-.4514243-.6184965-.0624568-.2578925-.0198553-.5300347.1184243-.7565035l1.99-3.259c.1861354-.3051048.520903-.4877313.8781992-.4790857.3572963.0086455.6828392.2072496.8540001.521.1711608.3137504.1619361.6949809-.0241993 1.0000857l-1.991 3.26c-.1816789.2976455-.505288.4791546-.854.479z" fill="#95a5a5"/><circle id="Oval" cx="42" cy="32" fill="#547580" r="17"/><path id="Shape" d="m55 32c-.0089542 6.7063019-5.1241067 12.3021958-11.8026416 12.9118984s-12.7224142-3.9674512-13.9455745-10.5612698c-1.2231604-6.5938186 2.7769644-13.0341459 9.2298399-14.8603339s13.2347329 1.5627978 15.6483762 7.8197053c.5765182 1.4963685.8714732 3.0864135.87 4.69z" fill="#67b9cc"/><path id="Shape" d="m55 32c.0033433 5.2082336-3.1039281 9.9150982-7.8945373 11.9585687-4.7906093 2.0434704-10.3385504 1.0285518-14.0954627-2.5785687-.01-.12-.01-.25-.01-.38.0024098-5.5612514 3.0814435-10.6647496 8-13.26.6432012-.3440071 1.3118267-.6382022 2-.88 1.6045015-.5732416 3.2961769-.8642098 5-.86 2.1130856-.0027367 4.2026087.4438009 6.13 1.31.5753241 1.4967059.8702376 3.0865268.87 4.69z" fill="#2fa8cc"/><path id="Shape" d="m43 25v1.86c-.6881733.2417978-1.3567988.5359929-2 .88v-2.74c0-.5522847.4477153-1 1-1s1 .4477153 1 1z" fill="#35495e"/><path id="Shape" d="m49 32c0 .5522847-.4477153 1-1 1h-6c-.5522847 0-1-.4477153-1-1v-4.26c.6432012-.3440071 1.3118267-.6382022 2-.88v4.14h5c.5522847 0 1 .4477153 1 1z" fill="#2c3e50"/></g></g></svg>