<svg id="Capa_1" enable-background="new 0 0 512 512" height="512" viewBox="0 0 512 512" width="512" xmlns="http://www.w3.org/2000/svg"><g><g><path d="m9.895 111.84-9.895 287.791v18.3c0 8.573 6.95 15.523 15.523 15.523h208.279c-1.113-3.853-1.568-7.984-1.191-12.275 1.448-16.468 15.001-29.605 31.508-30.506 19.366-1.058 35.4 14.333 35.4 33.468 0 3.233-.467 6.356-1.321 9.314h208.279c8.573 0 15.523-6.95 15.523-15.523v-17.265-293.387c0-8.573-6.95-15.523-15.523-15.523h-240.477z" fill="#e49824"/></g><g><g><path d="m465.321 91.757v326.173c0 8.573-6.95 15.523-15.523 15.523h46.679c8.573 0 15.523-6.95 15.523-15.523v-16.596-294.054c0-8.573-6.95-15.523-15.523-15.523z" fill="#df751c"/></g></g><g><path d="m256 390.62v-298.573c-24.072-13.614-51.12-21.264-79.714-21.264-14.96 0-29.496 2.096-43.404 6.043-27.127 7.699-55.271 11.205-83.469 11.205h-39.064c-5.716.001-10.349 4.634-10.349 10.35v302.953c0 5.715 4.633 10.349 10.349 10.349h39.064c28.198 0 56.343-3.506 83.469-11.205 13.908-3.948 28.445-6.043 43.404-6.043 18.519 0 36.384 3.227 53.218 9.187 6.132-7.908 15.716-13.002 26.496-13.002z" fill="#eaeaea"/></g><g><path d="m256 390.62v-298.573c-14.523-8.214-30.136-14.238-46.511-17.739v273.859c0 1.81-1.642 3.193-3.42 2.853-9.691-1.854-19.638-2.832-29.783-2.832-14.96 0-29.496 2.096-43.404 6.043-27.127 7.699-55.271 11.205-83.469 11.205h-49.413v35.897c0 5.715 4.633 10.349 10.349 10.349h39.064c28.198 0 56.343-3.506 83.469-11.205 13.909-3.948 28.445-6.043 43.404-6.043 18.519 0 36.384 3.227 53.218 9.187 6.132-7.907 15.716-13.001 26.496-13.001z" fill="#c6d0da"/></g><g><path d="m288.202 441.216c-.714 0-1.438-.099-2.157-.306-4.118-1.189-6.493-5.492-5.305-9.61.675-2.337 1.017-4.746 1.017-7.161 0-14.203-11.554-25.758-25.758-25.758s-25.758 11.554-25.758 25.758c0 2.414.342 4.824 1.017 7.161 1.189 4.118-1.185 8.42-5.304 9.61-4.117 1.185-8.42-1.185-9.609-5.305-1.079-3.737-1.626-7.595-1.626-11.466 0-22.762 18.519-41.281 41.281-41.281s41.281 18.519 41.281 41.281c0 3.873-.547 7.73-1.625 11.466-.982 3.4-4.084 5.611-7.454 5.611z" fill="#c73044"/></g><g fill="#434c54"><path d="m142.249 254.854c-.025 0-.051 0-.077 0-4.286.041-7.727 3.55-7.686 7.836l.371 38.367-29.512-42.735c-1.93-2.795-5.454-4.008-8.696-3-3.243 1.011-5.452 4.013-5.452 7.41v62.492c0 4.287 3.475 7.761 7.762 7.761s7.762-3.474 7.762-7.761v-37.594l28.108 40.703c2.284 3.298 6.093 4.701 9.7 3.573 3.684-1.151 6.065-4.601 6.064-8.866l-.585-60.5c-.04-4.261-3.507-7.686-7.759-7.686z"/><path d="m142.946 149.48c-4.287 0-7.762 3.475-7.762 7.762v22.469h-27.804v-22.469c0-4.287-3.475-7.762-7.762-7.762-4.286 0-7.761 3.475-7.761 7.762v62.61c0 4.287 3.475 7.761 7.761 7.761 4.287 0 7.762-3.475 7.762-7.761v-24.618h27.804v24.618c0 4.287 3.475 7.761 7.762 7.761 4.286 0 7.762-3.475 7.762-7.761v-62.61c0-4.288-3.476-7.762-7.762-7.762z"/><path d="m70.08 270.948c4.286 0 7.761-3.475 7.761-7.761 0-4.287-3.475-7.762-7.761-7.762h-26.14c-4.287 0-7.762 3.475-7.762 7.762v62.039c0 4.287 3.475 7.761 7.762 7.761h26.14c4.286 0 7.761-3.474 7.761-7.761s-3.475-7.761-7.761-7.761h-18.379v-15.496h16.451c4.286 0 7.761-3.475 7.761-7.761 0-4.287-3.475-7.761-7.761-7.761h-16.451v-15.497h18.379z"/><path d="m174.461 227.613h26.141c4.287 0 7.762-3.475 7.762-7.761 0-4.287-3.475-7.761-7.762-7.761h-18.379v-15.496h16.452c4.287 0 7.762-3.475 7.762-7.761 0-4.287-3.475-7.762-7.762-7.762h-16.452v-15.496h18.379c4.287 0 7.762-3.475 7.762-7.762s-3.475-7.761-7.762-7.761h-26.141c-4.287 0-7.762 3.475-7.762 7.761v62.038c0 4.286 3.475 7.761 7.762 7.761z"/><path d="m190.273 256.705h-17.208c-2.061 0-4.037.82-5.493 2.279-1.456 1.458-2.272 3.436-2.268 5.497v.048.002 59.707c0 .518.053 1.022.15 1.512.127 1.877.924 3.651 2.267 4.984 1.454 1.443 3.42 2.253 5.468 2.253h.03c.52-.002 12.79-.05 17.693-.135 18.344-.32 31.659-16.304 31.659-38.005-.001-22.814-12.98-38.142-32.298-38.142zm.367 60.625c-2.235.04-6.155.071-9.717.093-.023-7.17-.053-17.464-.053-22.644 0-4.333-.017-15.088-.03-22.551h9.432c15.966 0 16.774 18.841 16.774 22.617.001 11.05-5.072 22.287-16.406 22.485z"/><path d="m75.768 150.406h-34.577c-4.286 0-7.762 3.475-7.762 7.761 0 4.287 3.475 7.761 7.762 7.761h9.457v54.848c0 4.287 3.475 7.762 7.762 7.762 4.286 0 7.762-3.475 7.762-7.762v-54.848h9.597c4.286 0 7.762-3.474 7.762-7.761-.002-4.287-3.477-7.761-7.763-7.761z"/></g></g></svg>