<svg id="Layer_1" enable-background="new 0 0 256 256" height="512" viewBox="0 0 256 256" width="512" xmlns="http://www.w3.org/2000/svg"><path d="m170.83 184.988h-156.686c-2.036 0-3.687-1.651-3.687-3.687v-169.59c0-2.036 1.651-3.687 3.687-3.687h156.686c2.036 0 3.687 1.651 3.687 3.687v169.59c0 2.036-1.651 3.687-3.687 3.687z" fill="#4671c6"/><path d="m137.281 155.136h-89.588c-1.629 0-2.949-1.32-2.949-2.949v-111.362c0-1.629 1.32-2.949 2.949-2.949h89.588c1.629 0 2.949 1.32 2.949 2.949v111.362c0 1.629-1.32 2.949-2.949 2.949z" fill="#e0ebfc"/><path d="m140.23 184.988h-95.486v-8.491c0-1.629 1.32-2.949 2.949-2.949h89.588c1.629 0 2.949 1.32 2.949 2.949z" fill="#e0ebfc"/><path d="m137.281 19.465h-89.588c-1.629 0-2.949-1.32-2.949-2.949v-8.491h95.486v8.491c0 1.628-1.32 2.949-2.949 2.949z" fill="#e0ebfc"/><path d="m33.857 173.547h-12.512c-1.629 0-2.949-1.32-2.949-2.949v-12.512c0-1.629 1.32-2.949 2.949-2.949h12.512c1.629 0 2.949 1.32 2.949 2.949v12.512c0 1.629-1.32 2.949-2.949 2.949z" fill="#a4c9ff"/><path d="m33.857 139.629h-12.512c-1.629 0-2.949-1.32-2.949-2.949v-12.512c0-1.629 1.32-2.949 2.949-2.949h12.512c1.629 0 2.949 1.32 2.949 2.949v12.512c0 1.629-1.32 2.949-2.949 2.949z" fill="#a4c9ff"/><path d="m33.857 105.711h-12.512c-1.629 0-2.949-1.32-2.949-2.949v-12.512c0-1.629 1.32-2.949 2.949-2.949h12.512c1.629 0 2.949 1.32 2.949 2.949v12.512c0 1.629-1.32 2.949-2.949 2.949z" fill="#a4c9ff"/><path d="m34.222 38.241h-12.512c-1.629 0-2.949-1.32-2.949-2.949v-12.513c0-1.629 1.32-2.949 2.949-2.949h12.512c1.629 0 2.949 1.32 2.949 2.949v12.512c0 1.629-1.32 2.95-2.949 2.95z" fill="#a4c9ff"/><path d="m163.995 173.913h-12.512c-1.629 0-2.949-1.32-2.949-2.949v-12.512c0-1.629 1.32-2.949 2.949-2.949h12.512c1.629 0 2.949 1.32 2.949 2.949v12.512c0 1.628-1.32 2.949-2.949 2.949z" fill="#a4c9ff"/><path d="m163.995 38.241h-12.512c-1.629 0-2.949-1.32-2.949-2.949v-12.513c0-1.629 1.32-2.949 2.949-2.949h12.512c1.629 0 2.949 1.32 2.949 2.949v12.512c0 1.629-1.32 2.95-2.949 2.95z" fill="#a4c9ff"/><circle cx="90.958" cy="96.364" fill="#a4c9ff" r="27.902"/><path d="m78.823 85.977v20.775c0 2.617 2.766 4.31 5.096 3.119l20.323-10.388c2.545-1.301 2.545-4.937 0-6.237l-20.323-10.388c-2.33-1.191-5.096.502-5.096 3.119z" fill="#f9a7a7"/><path d="m33.857 71.794h-12.512c-1.629 0-2.949-1.32-2.949-2.949v-12.513c0-1.629 1.32-2.949 2.949-2.949h12.512c1.629 0 2.949 1.32 2.949 2.949v12.512c0 1.629-1.32 2.95-2.949 2.95z" fill="#a4c9ff"/><path d="m163.63 139.629h-12.512c-1.629 0-2.949-1.32-2.949-2.949v-12.512c0-1.629 1.32-2.949 2.949-2.949h12.512c1.629 0 2.949 1.32 2.949 2.949v12.512c0 1.629-1.32 2.949-2.949 2.949z" fill="#a4c9ff"/><path d="m163.63 105.711h-12.512c-1.629 0-2.949-1.32-2.949-2.949v-12.512c0-1.629 1.32-2.949 2.949-2.949h12.512c1.629 0 2.949 1.32 2.949 2.949v12.512c0 1.629-1.32 2.949-2.949 2.949z" fill="#a4c9ff"/><path d="m163.63 71.794h-12.512c-1.629 0-2.949-1.32-2.949-2.949v-12.513c0-1.629 1.32-2.949 2.949-2.949h12.512c1.629 0 2.949 1.32 2.949 2.949v12.512c0 1.629-1.32 2.95-2.949 2.95z" fill="#a4c9ff"/><g fill="#3762cc"><path d="m90.958 126.267c-16.488 0-29.902-13.414-29.902-29.902s13.414-29.903 29.902-29.903 29.902 13.414 29.902 29.902-13.414 29.903-29.902 29.903zm0-55.805c-14.282 0-25.902 11.62-25.902 25.902s11.62 25.902 25.902 25.902 25.902-11.62 25.902-25.902-11.62-25.902-25.902-25.902z"/><path d="m82.322 112.26c-.993 0-1.983-.273-2.869-.814-1.646-1.008-2.63-2.762-2.63-4.693v-20.776c0-1.931.983-3.686 2.631-4.694 1.646-1.007 3.656-1.085 5.375-.206l20.323 10.387c1.85.945 2.999 2.823 2.998 4.9 0 2.077-1.148 3.954-2.998 4.899l-20.323 10.388c-.795.407-1.652.609-2.507.609zm.007-27.79c-.364 0-.649.141-.787.226-.217.132-.719.521-.719 1.282v20.775c0 .76.502 1.149.718 1.282.217.132.79.401 1.468.056l20.323-10.388c.739-.378.818-1.061.818-1.337.001-.277-.079-.96-.818-1.338l-20.323-10.389c-.244-.124-.475-.169-.68-.169z"/><path d="m72.808 98.506h-17.512c-1.104 0-2-.896-2-2s.896-2 2-2h17.512c1.104 0 2 .896 2 2s-.896 2-2 2z"/><path d="m129.679 98.506h-17.512c-1.105 0-2-.896-2-2s.895-2 2-2h17.512c1.104 0 2 .896 2 2s-.896 2-2 2z"/><path d="m90.958 81.628c-1.104 0-2-.896-2-2v-17.512c0-1.104.896-2 2-2s2 .896 2 2v17.512c0 1.105-.896 2-2 2z"/><path d="m90.958 132.896c-1.104 0-2-.896-2-2v-17.512c0-1.104.896-2 2-2s2 .896 2 2v17.512c0 1.104-.896 2-2 2z"/><path d="m33.856 175.547h-12.511c-2.729 0-4.949-2.22-4.949-4.95v-12.512c0-2.729 2.22-4.95 4.949-4.95h12.512c2.729 0 4.949 2.22 4.949 4.95v12.512c0 2.73-2.22 4.95-4.95 4.95zm-12.511-18.411c-.523 0-.949.426-.949.95v12.512c0 .523.426.95.949.95h12.512c.523 0 .949-.426.949-.95v-12.512c0-.523-.426-.95-.949-.95z"/><path d="m33.856 141.629h-12.511c-2.729 0-4.949-2.22-4.949-4.949v-12.512c0-2.729 2.22-4.949 4.949-4.949h12.512c2.729 0 4.949 2.22 4.949 4.949v12.512c0 2.729-2.22 4.949-4.95 4.949zm-12.511-18.41c-.523 0-.949.426-.949.949v12.512c0 .523.426.949.949.949h12.512c.523 0 .949-.426.949-.949v-12.512c0-.523-.426-.949-.949-.949z"/><path d="m33.856 107.711h-12.511c-2.729 0-4.949-2.22-4.949-4.949v-12.512c0-2.729 2.22-4.949 4.949-4.949h12.512c2.729 0 4.949 2.22 4.949 4.949v12.512c0 2.729-2.22 4.949-4.95 4.949zm-12.511-18.41c-.523 0-.949.426-.949.949v12.512c0 .523.426.949.949.949h12.512c.523 0 .949-.426.949-.949v-12.512c0-.523-.426-.949-.949-.949z"/><path d="m34.222 40.241h-12.512c-2.729 0-4.949-2.22-4.949-4.949v-12.513c0-2.729 2.22-4.949 4.949-4.949h12.512c2.729 0 4.949 2.22 4.949 4.949v12.512c0 2.73-2.22 4.95-4.949 4.95zm-12.512-18.411c-.523 0-.949.426-.949.949v12.512c0 .523.426.949.949.949h12.512c.523 0 .949-.426.949-.949v-12.512c0-.523-.426-.949-.949-.949z"/><path d="m163.995 175.913h-12.513c-2.729 0-4.949-2.22-4.949-4.95v-12.512c0-2.729 2.22-4.949 4.949-4.949h12.513c2.729 0 4.949 2.22 4.949 4.949v12.512c0 2.729-2.219 4.95-4.949 4.95zm-12.513-18.411c-.523 0-.949.426-.949.949v12.512c0 .523.426.95.949.95h12.513c.523 0 .949-.426.949-.95v-12.512c0-.523-.426-.949-.949-.949z"/><path d="m163.995 40.241h-12.513c-2.729 0-4.949-2.22-4.949-4.949v-12.513c0-2.729 2.22-4.949 4.949-4.949h12.513c2.729 0 4.949 2.22 4.949 4.949v12.512c0 2.73-2.219 4.95-4.949 4.95zm-12.513-18.411c-.523 0-.949.426-.949.949v12.512c0 .523.426.949.949.949h12.513c.523 0 .949-.426.949-.949v-12.512c0-.523-.426-.949-.949-.949z"/><path d="m33.856 73.793h-12.511c-2.729 0-4.949-2.22-4.949-4.949v-12.512c0-2.729 2.22-4.949 4.949-4.949h12.512c2.729 0 4.949 2.22 4.949 4.949v12.512c0 2.729-2.22 4.949-4.95 4.949zm-12.511-18.41c-.523 0-.949.426-.949.949v12.512c0 .523.426.949.949.949h12.512c.523 0 .949-.426.949-.949v-12.512c0-.523-.426-.949-.949-.949z"/><path d="m163.63 141.629h-12.513c-2.729 0-4.949-2.22-4.949-4.949v-12.512c0-2.729 2.22-4.949 4.949-4.949h12.513c2.729 0 4.949 2.22 4.949 4.949v12.512c0 2.729-2.22 4.949-4.949 4.949zm-12.513-18.41c-.523 0-.949.426-.949.949v12.512c0 .523.426.949.949.949h12.513c.523 0 .949-.426.949-.949v-12.512c0-.523-.426-.949-.949-.949z"/><path d="m163.63 107.711h-12.513c-2.729 0-4.949-2.22-4.949-4.949v-12.512c0-2.729 2.22-4.949 4.949-4.949h12.513c2.729 0 4.949 2.22 4.949 4.949v12.512c0 2.729-2.22 4.949-4.949 4.949zm-12.513-18.41c-.523 0-.949.426-.949.949v12.512c0 .523.426.949.949.949h12.513c.523 0 .949-.426.949-.949v-12.512c0-.523-.426-.949-.949-.949z"/><path d="m163.63 73.793h-12.513c-2.729 0-4.949-2.22-4.949-4.949v-12.512c0-2.729 2.22-4.949 4.949-4.949h12.513c2.729 0 4.949 2.22 4.949 4.949v12.512c0 2.729-2.22 4.949-4.949 4.949zm-12.513-18.41c-.523 0-.949.426-.949.949v12.512c0 .523.426.949.949.949h12.513c.523 0 .949-.426.949-.949v-12.512c0-.523-.426-.949-.949-.949z"/><path d="m170.83 186.988h-156.685c-3.136 0-5.688-2.551-5.688-5.687v-169.59c0-3.136 2.552-5.687 5.688-5.687h156.685c3.136 0 5.687 2.551 5.687 5.687v169.589c0 3.137-2.551 5.688-5.687 5.688zm-156.685-176.964c-.931 0-1.688.757-1.688 1.687v169.589c0 .93.757 1.687 1.688 1.687h156.685c.93 0 1.687-.757 1.687-1.687v-169.589c0-.93-.757-1.687-1.687-1.687z"/><path d="m137.281 157.136h-89.588c-2.729 0-4.949-2.22-4.949-4.949v-111.362c0-2.729 2.22-4.95 4.949-4.95h89.588c2.729 0 4.949 2.22 4.949 4.95v111.362c0 2.729-2.219 4.949-4.949 4.949zm-89.588-117.261c-.523 0-.949.426-.949.95v111.362c0 .523.426.949.949.949h89.588c.523 0 .949-.426.949-.949v-111.362c0-.523-.426-.95-.949-.95z"/><path d="m140.23 186.988h-95.486c-1.104 0-2-.896-2-2v-8.491c0-2.729 2.22-4.949 4.949-4.949h89.588c2.729 0 4.949 2.22 4.949 4.949v8.491c0 1.104-.895 2-2 2zm-93.486-4h91.486v-6.491c0-.523-.426-.949-.949-.949h-89.588c-.523 0-.949.426-.949.949z"/><path d="m137.281 21.465h-89.588c-2.729 0-4.949-2.22-4.949-4.949v-8.492c0-1.104.896-2 2-2h95.486c1.104 0 2 .896 2 2v8.491c0 2.73-2.219 4.95-4.949 4.95zm-90.537-11.441v6.491c0 .523.426.949.949.949h89.588c.523 0 .949-.426.949-.949v-6.491z"/></g><path d="m229.984 247.975h-110.77c-8.592 0-15.558-6.966-15.558-15.558v-95.647c0-8.592 6.966-15.558 15.558-15.558h110.77c8.592 0 15.558 6.966 15.558 15.558v95.647c.001 8.593-6.965 15.558-15.558 15.558z" fill="#e0ebfc"/><path d="m103.657 136.771v16.442h141.886v-16.442c0-8.592-6.966-15.558-15.558-15.558h-110.77c-8.593 0-15.558 6.965-15.558 15.558z" fill="#6bdddd"/><path d="m150.128 179.859v-11.264c0-1.105.895-2 2-2h14.317c1.105 0 2 .895 2 2v11.264c0 1.105-.895 2-2 2h-14.317c-1.105 0-2-.896-2-2z" fill="#a4c9ff"/><path d="m210.629 179.859v-11.264c0-1.105.895-2 2-2h14.317c1.105 0 2 .895 2 2v11.264c0 1.105-.895 2-2 2h-14.317c-1.105 0-2-.896-2-2z" fill="#a4c9ff"/><path d="m119.878 204.984v-11.264c0-1.105.895-2 2-2h14.317c1.105 0 2 .895 2 2v11.264c0 1.105-.895 2-2 2h-14.317c-1.105 0-2-.895-2-2z" fill="#a4c9ff"/><path d="m150.128 204.984v-11.264c0-1.105.895-2 2-2h14.317c1.105 0 2 .895 2 2v11.264c0 1.105-.895 2-2 2h-14.317c-1.105 0-2-.895-2-2z" fill="#a4c9ff"/><path d="m180.378 204.984v-11.264c0-1.105.895-2 2-2h14.317c1.105 0 2 .895 2 2v11.264c0 1.105-.895 2-2 2h-14.317c-1.104 0-2-.895-2-2z" fill="#a4c9ff"/><path d="m210.629 204.984v-11.264c0-1.105.895-2 2-2h14.317c1.105 0 2 .895 2 2v11.264c0 1.105-.895 2-2 2h-14.317c-1.105 0-2-.895-2-2z" fill="#a4c9ff"/><path d="m119.878 231.366v-11.264c0-1.105.895-2 2-2h14.317c1.105 0 2 .895 2 2v11.264c0 1.105-.895 2-2 2h-14.317c-1.105 0-2-.895-2-2z" fill="#a4c9ff"/><path d="m150.128 231.366v-11.264c0-1.105.895-2 2-2h14.317c1.105 0 2 .895 2 2v11.264c0 1.105-.895 2-2 2h-14.317c-1.105 0-2-.895-2-2z" fill="#a4c9ff"/><path d="m180.378 231.366v-11.264c0-1.105.895-2 2-2h14.317c1.105 0 2 .895 2 2v11.264c0 1.105-.895 2-2 2h-14.317c-1.104 0-2-.895-2-2z" fill="#a4c9ff"/><path d="m229.984 249.976h-110.77c-9.682 0-17.559-7.876-17.559-17.558v-95.647c0-9.682 7.877-17.558 17.559-17.558h110.77c9.682 0 17.559 7.876 17.559 17.558v95.647c0 9.681-7.877 17.558-17.559 17.558zm-110.769-126.764c-7.477 0-13.559 6.082-13.559 13.558v95.647c0 7.476 6.082 13.558 13.559 13.558h110.77c7.477 0 13.559-6.082 13.559-13.558v-95.647c0-7.476-6.082-13.558-13.559-13.558z" fill="#3762cc"/><path d="m245.543 155.212h-141.887c-1.104 0-2-.896-2-2v-16.442c0-9.682 7.877-17.558 17.559-17.558h110.77c9.682 0 17.559 7.876 17.559 17.558v16.442c-.001 1.105-.897 2-2.001 2zm-139.887-4h137.887v-14.442c0-7.476-6.082-13.558-13.559-13.558h-110.77c-7.477 0-13.559 6.082-13.559 13.558v14.442z" fill="#3762cc"/><path d="m214.505 140.669h-.311c-4.081 0-7.39-3.309-7.39-7.39v-18.475c0-4.081 3.309-7.39 7.39-7.39h.311c4.081 0 7.39 3.309 7.39 7.39v18.475c0 4.081-3.309 7.39-7.39 7.39z" fill="#f9cfcf"/><path d="m135.005 140.669h-.311c-4.081 0-7.39-3.309-7.39-7.39v-18.475c0-4.081 3.309-7.39 7.39-7.39h.311c4.081 0 7.39 3.309 7.39 7.39v18.475c0 4.081-3.309 7.39-7.39 7.39z" fill="#f9cfcf"/><path d="m174.567 140.669h-.311c-4.081 0-7.39-3.309-7.39-7.39v-18.475c0-4.081 3.309-7.39 7.39-7.39h.311c4.081 0 7.39 3.309 7.39 7.39v18.475c0 4.081-3.309 7.39-7.39 7.39z" fill="#f9cfcf"/><path d="m214.505 142.668h-.311c-5.178 0-9.39-4.212-9.39-9.39v-18.475c0-5.177 4.212-9.39 9.39-9.39h.311c5.178 0 9.39 4.212 9.39 9.39v18.475c0 5.178-4.212 9.39-9.39 9.39zm-.311-33.254c-2.972 0-5.39 2.418-5.39 5.39v18.475c0 2.972 2.418 5.39 5.39 5.39h.311c2.972 0 5.39-2.418 5.39-5.39v-18.475c0-2.972-2.418-5.39-5.39-5.39z" fill="#3762cc"/><path d="m135.005 142.668h-.311c-5.178 0-9.39-4.212-9.39-9.39v-18.475c0-5.177 4.212-9.39 9.39-9.39h.311c5.178 0 9.39 4.212 9.39 9.39v18.475c0 5.178-4.212 9.39-9.39 9.39zm-.311-33.254c-2.972 0-5.39 2.418-5.39 5.39v18.475c0 2.972 2.418 5.39 5.39 5.39h.311c2.972 0 5.39-2.418 5.39-5.39v-18.475c0-2.972-2.418-5.39-5.39-5.39z" fill="#3762cc"/><path d="m174.567 142.668h-.312c-5.178 0-9.39-4.212-9.39-9.39v-18.475c0-5.177 4.212-9.39 9.39-9.39h.312c5.178 0 9.39 4.212 9.39 9.39v18.475c0 5.178-4.212 9.39-9.39 9.39zm-.311-33.254c-2.972 0-5.39 2.418-5.39 5.39v18.475c0 2.972 2.418 5.39 5.39 5.39h.312c2.972 0 5.39-2.418 5.39-5.39v-18.475c0-2.972-2.418-5.39-5.39-5.39z" fill="#3762cc"/><circle cx="189.537" cy="174.227" fill="#f9a7a7" r="14.508"/><path d="m180.378 179.859v-11.264c0-1.105.895-2 2-2h14.317c1.105 0 2 .895 2 2v11.264c0 1.105-.895 2-2 2h-14.317c-1.104 0-2-.896-2-2z" fill="#a4c9ff"/></svg>
